<?xml version="1.0" encoding="UTF-8"?> <svg xmlns="http://www.w3.org/2000/svg" width="155" height="41" viewBox="0 0 155 41" fill="none"><g clip-path="url(#clip0_2001_198)"><path d="M142.646 7.82901H139.756L144.463 0L149.178 7.808H146.065V8.27701C146.065 13.677 146.056 19.084 146.065 24.488C146.092 25.6139 146.505 26.6964 147.234 27.5548C147.963 28.4133 148.964 28.9957 150.071 29.205C150.442 29.2586 150.817 29.2856 151.192 29.286C152.261 29.297 153.33 29.286 154.422 29.286V32.697H154.006C152.853 32.697 151.7 32.719 150.548 32.692C148.749 32.647 147.022 31.9782 145.662 30.8C144.426 29.8098 143.517 28.4703 143.053 26.956C142.81 26.169 142.678 25.3516 142.663 24.528C142.63 19.138 142.646 13.748 142.646 8.358V7.82901Z" fill="#C61818"></path><path d="M101.475 32.7525V7.6875H104.939V29.3635H118.039V32.7525H101.475Z" fill="#C61818"></path><path d="M137.813 19.4534H131.182V32.6754H127.749V32.2244C127.749 26.7514 127.721 21.2784 127.764 15.8064C127.825 14.0213 128.454 12.3022 129.558 10.8986C130.663 9.4951 132.186 8.48023 133.907 8.00136C134.973 7.82002 136.051 7.7111 137.132 7.67536C137.508 7.64436 137.889 7.67037 138.298 7.67037V11.1624C137.515 11.1624 136.732 11.1874 135.951 11.1624C134.771 11.1925 133.643 11.6511 132.776 12.4526C131.91 13.254 131.365 14.3434 131.243 15.5174C131.225 15.663 131.196 15.807 131.156 15.9484H137.812L137.813 19.4534Z" fill="#C61818"></path><path d="M124.136 32.681H120.774V16H124.136V32.681Z" fill="#C61818"></path><path d="M146.903 19.4293C146.893 19.373 146.886 19.3163 146.882 19.2593C146.882 18.1793 146.882 17.0983 146.882 15.9883H152.713V19.4293H146.903Z" fill="#C61818"></path><path d="M1 7.01523C5 7.01523 9 6.99223 13 7.02723C14.4826 7.03982 15.9317 7.46938 17.1816 8.26676C18.4316 9.06414 19.4319 10.1972 20.0683 11.5363C20.7046 12.8754 20.9513 14.3666 20.78 15.8393C20.6088 17.312 20.0266 18.7068 19.1 19.8642C17.8762 21.4037 16.129 22.4394 14.191 22.7742C14.0968 22.7858 14.0017 22.7884 13.907 22.7822C13.829 22.7822 13.751 22.7822 13.613 22.7822L21.155 32.6662H16.812L9.34399 22.8832H4.505V32.7012H0.994995L1 7.01523ZM4.519 19.3722H4.976C7.688 19.3722 10.4003 19.3722 13.113 19.3722C14.1788 19.3723 15.2017 18.9523 15.96 18.2032C16.5963 17.6116 17.0448 16.8462 17.25 16.002C17.4551 15.1577 17.4079 14.2718 17.114 13.4542C16.8202 12.6366 16.2927 11.9233 15.5971 11.4028C14.9015 10.8823 14.0683 10.5775 13.201 10.5262C10.449 10.4592 7.695 10.5102 4.942 10.5102H4.52L4.519 19.3722Z" fill="white"></path><path d="M41.214 40.9929C41.214 35.4535 41.214 29.9149 41.214 24.3769C41.208 22.8239 41.6347 21.3 42.4463 19.9759C43.2578 18.6519 44.4222 17.5802 45.8088 16.8808C47.1954 16.1815 48.7494 15.8823 50.2966 16.0167C51.8437 16.1512 53.3228 16.714 54.568 17.642C55.8132 18.57 56.7753 19.8265 57.3463 21.2707C57.9174 22.7148 58.0748 24.2895 57.801 25.8182C57.5272 27.3468 56.8329 28.769 55.7961 29.9251C54.7593 31.0813 53.4209 31.9258 51.931 32.3639C50.7759 32.7031 49.561 32.7882 48.3699 32.6131C47.1787 32.4381 46.0397 32.0071 45.031 31.3499C44.918 31.2789 44.811 31.1979 44.701 31.1239C44.694 31.1239 44.676 31.1319 44.63 31.1489V40.9929H41.214ZM44.632 24.2739C44.6265 24.9285 44.7506 25.5777 44.9973 26.1841C45.244 26.7905 45.6083 27.342 46.0692 27.8069C46.5302 28.2717 47.0786 28.6407 47.6829 28.8925C48.2872 29.1443 48.9353 29.2739 49.59 29.2739C50.5657 29.2716 51.5189 28.9809 52.3298 28.4384C53.1407 27.8958 53.7731 27.1255 54.1473 26.2244C54.5216 25.3234 54.621 24.3318 54.4332 23.3744C54.2453 22.4169 53.7785 21.5364 53.0915 20.8436C52.4045 20.1508 51.528 19.6766 50.5722 19.4806C49.6164 19.2847 48.6239 19.3758 47.7198 19.7424C46.8156 20.1091 46.04 20.7349 45.4906 21.5412C44.9412 22.3475 44.6425 23.2982 44.632 24.2739Z" fill="white"></path><path d="M38.737 32.6999C35.597 32.6999 32.489 32.7579 29.384 32.6749C27.8693 32.5839 26.424 32.0078 25.262 31.0319C23.6176 29.8469 22.4948 28.0723 22.128 26.0789C21.8621 24.8813 21.8713 23.639 22.1548 22.4454C22.4383 21.2518 22.9889 20.138 23.765 19.1879C24.9561 17.6568 26.6503 16.5962 28.548 16.1939C29.6985 15.9243 30.8941 15.9099 32.0507 16.1518C33.2073 16.3937 34.297 16.8859 35.243 17.5939C36.7417 18.6646 37.8479 20.1973 38.392 21.9569C38.7248 23.2993 38.8522 24.6844 38.77 26.0649H25.706C26.0534 27.0141 26.6845 27.8333 27.5135 28.4115C28.3425 28.9897 29.3293 29.2988 30.34 29.2969C32.985 29.2809 35.631 29.2909 38.276 29.2909H38.736L38.737 32.6999ZM34.937 22.6049C34.5632 21.5866 33.8589 20.7229 32.9366 20.1519C32.0143 19.5809 30.9272 19.3355 29.849 19.4549C28.938 19.53 28.0683 19.8674 27.345 20.4265C26.6218 20.9855 26.0761 21.7422 25.774 22.6049H34.937Z" fill="white"></path><path d="M76.38 32.7008H75.88C73.101 32.7008 70.321 32.7238 67.541 32.6928C65.6993 32.6648 63.9299 31.9711 62.56 30.7398C61.475 29.83 60.6417 28.6569 60.14 27.3328C59.6626 26.0542 59.5044 24.6784 59.679 23.3248C59.8186 21.9981 60.3011 20.7306 61.079 19.6468C61.7093 18.7041 62.5292 17.9032 63.4863 17.295C64.4435 16.6869 65.5168 16.285 66.638 16.1148C68.3792 15.7942 70.1776 16.0597 71.752 16.8698C72.917 17.4596 73.9316 18.3082 74.718 19.3506C75.5044 20.393 76.0418 21.6016 76.289 22.8838C76.3545 23.2396 76.384 23.6011 76.377 23.9628C76.3836 26.7115 76.3836 29.4601 76.377 32.2088L76.38 32.7008ZM72.964 29.2888C72.964 28.3518 72.974 27.4608 72.964 26.5698C72.954 25.6788 72.927 24.7648 72.883 23.8628C72.7919 22.7325 72.3039 21.6708 71.5055 20.8656C70.707 20.0603 69.6495 19.5634 68.52 19.4628C67.6053 19.3642 66.6813 19.5229 65.8519 19.921C65.0225 20.3191 64.3208 20.9408 63.8256 21.7161C63.3303 22.4914 63.0613 23.3895 63.0489 24.3094C63.0364 25.2293 63.281 26.1344 63.755 26.9228C64.1244 27.5762 64.6466 28.1304 65.2768 28.538C65.907 28.9457 66.6266 29.1947 67.374 29.2638C69.207 29.3848 71.058 29.2888 72.964 29.2888Z" fill="white"></path><path d="M98.512 16.039V19.45H98.126C97.109 19.45 96.092 19.468 95.075 19.45C93.9008 19.4681 92.7706 19.8999 91.8836 20.6695C90.9965 21.4391 90.4095 22.4971 90.226 23.657C90.2184 23.7652 90.2184 23.8738 90.226 23.982V32.682H86.747C86.741 32.551 86.729 32.422 86.729 32.291C86.729 29.718 86.716 27.145 86.729 24.572C86.7015 23.3322 86.9511 22.1019 87.4596 20.9708C87.968 19.8397 88.7225 18.8364 89.668 18.034C91.0363 16.7765 92.8198 16.067 94.678 16.041C95.94 16.036 97.207 16.039 98.512 16.039Z" fill="white"></path><path d="M83.174 32.6912H79.754V15.9912H83.174V32.6912Z" fill="white"></path><path d="M81.534 8.72457C82.1519 8.73747 82.7406 8.98984 83.1761 9.42844C83.6115 9.86704 83.8596 10.4576 83.868 11.0756C83.8447 11.7126 83.5754 12.3157 83.1166 12.7582C82.6579 13.2008 82.0454 13.4482 81.408 13.4486C80.7911 13.4224 80.2072 13.1627 79.7745 12.7221C79.3419 12.2814 79.0929 11.6929 79.078 11.0756C79.0791 10.7582 79.1441 10.4443 79.2693 10.1527C79.3944 9.86102 79.5771 9.59758 79.8064 9.37812C80.0356 9.15866 80.3068 8.98768 80.6036 8.87539C80.9004 8.7631 81.2169 8.7118 81.534 8.72457Z" fill="white"></path><path d="M122.46 8.72361C122.774 8.71077 123.087 8.7621 123.38 8.87444C123.673 8.98678 123.94 9.15776 124.164 9.37693C124.389 9.59609 124.567 9.85883 124.686 10.149C124.806 10.4392 124.865 10.7508 124.86 11.0646C124.858 11.3805 124.794 11.693 124.671 11.9842C124.549 12.2753 124.37 12.5393 124.145 12.7611C123.92 12.9829 123.653 13.158 123.36 13.2765C123.067 13.395 122.754 13.4545 122.438 13.4516C121.82 13.4074 121.238 13.1393 120.803 12.6976C120.368 12.2558 120.109 11.6707 120.074 11.0516C120.097 10.4315 120.358 9.84406 120.802 9.41073C121.246 8.9774 121.84 8.73139 122.46 8.72361Z" fill="#C61818"></path></g><defs><clipPath id="clip0_2001_198"><rect width="155" height="41" fill="white"></rect></clipPath></defs></svg> 